<svg xmlns="http://www.w3.org/2000/svg" width="768" height="1024" viewBox="0 0 768 1024" version="1.1"><path d="M 691.364 117.493 C 691.018 118.396, 691.214 119.614, 691.800 120.200 C 693.324 121.724, 696.210 120.331, 695.812 118.265 C 695.369 115.963, 692.165 115.407, 691.364 117.493 M 254.364 130.493 C 254.018 131.396, 254.214 132.614, 254.800 133.200 C 256.324 134.724, 259.210 133.331, 258.812 131.265 C 258.369 128.963, 255.165 128.407, 254.364 130.493 M 506.364 184.493 C 506.018 185.396, 506.214 186.614, 506.800 187.200 C 508.324 188.724, 511.210 187.331, 510.812 185.265 C 510.369 182.963, 507.165 182.407, 506.364 184.493 M 497.364 247.493 C 497.018 248.396, 497.214 249.614, 497.800 250.200 C 499.324 251.724, 502.210 250.331, 501.812 248.265 C 501.369 245.963, 498.165 245.407, 497.364 247.493 M 319.529 315.954 C 319.167 316.539, 319.131 317.838, 319.449 318.840 C 319.896 320.248, 319.514 320.643, 317.764 320.581 C 316.140 320.523, 315.500 321.065, 315.500 322.500 C 315.500 323.905, 316.143 324.479, 317.664 324.430 C 319.379 324.374, 319.793 324.892, 319.664 326.930 C 319.539 328.888, 319.976 329.500, 321.500 329.500 C 323.024 329.500, 323.461 328.888, 323.336 326.930 C 323.207 324.892, 323.621 324.374, 325.336 324.430 C 326.857 324.479, 327.500 323.905, 327.500 322.500 C 327.500 321.095, 326.857 320.521, 325.336 320.570 C 323.629 320.625, 323.207 320.107, 323.336 318.109 C 323.507 315.465, 320.784 313.923, 319.529 315.954 M 637.046 405.444 C 636.348 406.286, 636.020 407.611, 636.319 408.389 C 636.644 409.237, 636.088 410.005, 634.931 410.308 C 632.619 410.912, 632.314 414.800, 634.513 415.643 C 635.345 415.963, 636.659 415.698, 637.434 415.055 C 638.584 414.101, 638.744 414.262, 638.308 415.931 C 637.380 419.479, 640.943 419.803, 643.681 416.418 C 646.603 412.807, 646.470 408.472, 643.441 408.559 C 642.002 408.600, 641.400 408.007, 641.441 406.590 C 641.514 404.088, 638.766 403.372, 637.046 405.444 M 103.364 411.493 C 103.018 412.396, 103.214 413.614, 103.800 414.200 C 105.324 415.724, 108.210 414.331, 107.812 412.265 C 107.369 409.963, 104.165 409.407, 103.364 411.493 M 301.364 442.493 C 301.018 443.396, 301.214 444.614, 301.800 445.200 C 303.324 446.724, 306.210 445.331, 305.812 443.265 C 305.369 440.963, 302.165 440.407, 301.364 442.493 M 469.364 449.493 C 469.018 450.396, 469.214 451.614, 469.800 452.200 C 471.324 453.724, 474.210 452.331, 473.812 450.265 C 473.369 447.963, 470.165 447.407, 469.364 449.493 M 402.364 563.493 C 402.018 564.396, 402.214 565.614, 402.800 566.200 C 404.324 567.724, 407.210 566.331, 406.812 564.265 C 406.369 561.963, 403.165 561.407, 402.364 563.493 M 114.364 588.493 C 114.018 589.396, 114.214 590.614, 114.800 591.200 C 116.324 592.724, 119.210 591.331, 118.812 589.265 C 118.369 586.963, 115.165 586.407, 114.364 588.493 M 568.364 630.493 C 568.018 631.396, 568.214 632.614, 568.800 633.200 C 570.324 634.724, 573.210 633.331, 572.812 631.265 C 572.369 628.963, 569.165 628.407, 568.364 630.493 M 160.385 677.439 C 160.050 678.311, 160.332 679.695, 161.011 680.513 C 162.278 682.040, 161.803 682.363, 158.743 682.051 C 156.638 681.836, 155.298 684.698, 156.800 686.200 C 157.386 686.786, 158.458 687.038, 159.183 686.760 C 161.428 685.899, 162.480 686.426, 162.170 688.257 C 161.816 690.342, 164.678 691.722, 166.200 690.200 C 166.786 689.614, 167.038 688.542, 166.760 687.817 C 165.782 685.267, 166.110 684.503, 168.052 684.814 C 170.312 685.176, 171.798 682.398, 170.200 680.800 C 169.614 680.214, 168.317 680.048, 167.317 680.432 C 164.779 681.406, 164.560 681.274, 164.528 678.760 C 164.495 676.123, 161.283 675.099, 160.385 677.439 M 317.364 679.493 C 317.018 680.396, 317.214 681.614, 317.800 682.200 C 319.324 683.724, 322.210 682.331, 321.812 680.265 C 321.369 677.963, 318.165 677.407, 317.364 679.493 M 83.364 785.493 C 83.018 786.396, 83.214 787.614, 83.800 788.200 C 85.324 789.724, 88.210 788.331, 87.812 786.265 C 87.369 783.963, 84.165 783.407, 83.364 785.493 M 388.364 877.493 C 388.018 878.396, 388.214 879.614, 388.800 880.200 C 390.324 881.724, 393.210 880.331, 392.812 878.265 C 392.369 875.963, 389.165 875.407, 388.364 877.493" stroke="none" fill="#bdfcfc" fill-rule="evenodd"/><path d="M 0 512.001 L 0 1024.003 384.250 1023.751 L 768.500 1023.500 768.751 511.750 L 769.002 0 384.501 0 L 0 0 0 512.001 M 0.496 512.500 C 0.496 794.100, 0.610 909.151, 0.750 768.168 C 0.890 627.186, 0.890 396.786, 0.750 256.168 C 0.610 115.551, 0.496 230.900, 0.496 512.500 M 691.364 117.493 C 691.018 118.396, 691.214 119.614, 691.800 120.200 C 693.324 121.724, 696.210 120.331, 695.812 118.265 C 695.369 115.963, 692.165 115.407, 691.364 117.493 M 254.364 130.493 C 254.018 131.396, 254.214 132.614, 254.800 133.200 C 256.324 134.724, 259.210 133.331, 258.812 131.265 C 258.369 128.963, 255.165 128.407, 254.364 130.493 M 506.364 184.493 C 506.018 185.396, 506.214 186.614, 506.800 187.200 C 508.324 188.724, 511.210 187.331, 510.812 185.265 C 510.369 182.963, 507.165 182.407, 506.364 184.493 M 497.364 247.493 C 497.018 248.396, 497.214 249.614, 497.800 250.200 C 499.324 251.724, 502.210 250.331, 501.812 248.265 C 501.369 245.963, 498.165 245.407, 497.364 247.493 M 319.529 315.954 C 319.167 316.539, 319.131 317.838, 319.449 318.840 C 319.896 320.248, 319.514 320.643, 317.764 320.581 C 316.140 320.523, 315.500 321.065, 315.500 322.500 C 315.500 323.905, 316.143 324.479, 317.664 324.430 C 319.379 324.374, 319.793 324.892, 319.664 326.930 C 319.539 328.888, 319.976 329.500, 321.500 329.500 C 323.024 329.500, 323.461 328.888, 323.336 326.930 C 323.207 324.892, 323.621 324.374, 325.336 324.430 C 326.857 324.479, 327.500 323.905, 327.500 322.500 C 327.500 321.095, 326.857 320.521, 325.336 320.570 C 323.629 320.625, 323.207 320.107, 323.336 318.109 C 323.507 315.465, 320.784 313.923, 319.529 315.954 M 637.046 405.444 C 636.348 406.286, 636.020 407.611, 636.319 408.389 C 636.644 409.237, 636.088 410.005, 634.931 410.308 C 632.619 410.912, 632.314 414.800, 634.513 415.643 C 635.345 415.963, 636.659 415.698, 637.434 415.055 C 638.584 414.101, 638.744 414.262, 638.308 415.931 C 637.380 419.479, 640.943 419.803, 643.681 416.418 C 646.603 412.807, 646.470 408.472, 643.441 408.559 C 642.002 408.600, 641.400 408.007, 641.441 406.590 C 641.514 404.088, 638.766 403.372, 637.046 405.444 M 103.364 411.493 C 103.018 412.396, 103.214 413.614, 103.800 414.200 C 105.324 415.724, 108.210 414.331, 107.812 412.265 C 107.369 409.963, 104.165 409.407, 103.364 411.493 M 301.364 442.493 C 301.018 443.396, 301.214 444.614, 301.800 445.200 C 303.324 446.724, 306.210 445.331, 305.812 443.265 C 305.369 440.963, 302.165 440.407, 301.364 442.493 M 469.364 449.493 C 469.018 450.396, 469.214 451.614, 469.800 452.200 C 471.324 453.724, 474.210 452.331, 473.812 450.265 C 473.369 447.963, 470.165 447.407, 469.364 449.493 M 402.364 563.493 C 402.018 564.396, 402.214 565.614, 402.800 566.200 C 404.324 567.724, 407.210 566.331, 406.812 564.265 C 406.369 561.963, 403.165 561.407, 402.364 563.493 M 114.364 588.493 C 114.018 589.396, 114.214 590.614, 114.800 591.200 C 116.324 592.724, 119.210 591.331, 118.812 589.265 C 118.369 586.963, 115.165 586.407, 114.364 588.493 M 568.364 630.493 C 568.018 631.396, 568.214 632.614, 568.800 633.200 C 570.324 634.724, 573.210 633.331, 572.812 631.265 C 572.369 628.963, 569.165 628.407, 568.364 630.493 M 160.385 677.439 C 160.050 678.311, 160.332 679.695, 161.011 680.513 C 162.278 682.040, 161.803 682.363, 158.743 682.051 C 156.638 681.836, 155.298 684.698, 156.800 686.200 C 157.386 686.786, 158.458 687.038, 159.183 686.760 C 161.428 685.899, 162.480 686.426, 162.170 688.257 C 161.816 690.342, 164.678 691.722, 166.200 690.200 C 166.786 689.614, 167.038 688.542, 166.760 687.817 C 165.782 685.267, 166.110 684.503, 168.052 684.814 C 170.312 685.176, 171.798 682.398, 170.200 680.800 C 169.614 680.214, 168.317 680.048, 167.317 680.432 C 164.779 681.406, 164.560 681.274, 164.528 678.760 C 164.495 676.123, 161.283 675.099, 160.385 677.439 M 317.364 679.493 C 317.018 680.396, 317.214 681.614, 317.800 682.200 C 319.324 683.724, 322.210 682.331, 321.812 680.265 C 321.369 677.963, 318.165 677.407, 317.364 679.493 M 83.364 785.493 C 83.018 786.396, 83.214 787.614, 83.800 788.200 C 85.324 789.724, 88.210 788.331, 87.812 786.265 C 87.369 783.963, 84.165 783.407, 83.364 785.493 M 388.364 877.493 C 388.018 878.396, 388.214 879.614, 388.800 880.200 C 390.324 881.724, 393.210 880.331, 392.812 878.265 C 392.369 875.963, 389.165 875.407, 388.364 877.493" stroke="none" fill="#040404" fill-rule="evenodd"/></svg>