<svg xmlns="http://www.w3.org/2000/svg" width="1008" height="227" viewBox="0 0 1008 227" version="1.1"><path d="M 419.746 81.086 C 413.197 82.629, 406.432 86.725, 401.653 92.041 C 395.482 98.905, 392.870 107.095, 392.840 119.681 C 392.794 138.828, 399.946 151.358, 414.500 157.632 C 420.642 160.279, 435.837 160.042, 443.079 157.185 C 458.316 151.174, 465.807 137.281, 464.746 117.001 C 464.055 103.782, 461.431 97.155, 453.990 89.826 C 449.277 85.184, 447.006 83.773, 441.509 82.076 C 434.530 79.920, 426.284 79.545, 419.746 81.086 M 501.500 81.345 C 493.955 83.311, 488.684 86.415, 484.155 91.561 C 478.568 97.909, 475.878 105.448, 475.259 116.500 C 474.071 137.675, 481.942 152.365, 497.318 157.673 C 506.811 160.951, 522.992 159.878, 534.746 155.193 L 538.993 153.500 538.996 134.250 L 539 115 524.469 115 C 513.715 115, 509.838 115.325, 509.554 116.250 C 509.343 116.938, 508.935 119.188, 508.648 121.250 L 508.126 125 518.063 125 L 528 125 528 135.961 L 528 146.923 523.916 148.023 C 518.751 149.413, 510.910 149.662, 504.622 148.636 C 500.668 147.990, 498.848 146.944, 495.018 143.113 C 489.213 137.308, 487.454 131.469, 487.605 118.500 C 487.803 101.444, 494.221 92.915, 508.645 90.542 C 513.781 89.697, 523.142 91.351, 528.230 94.003 C 530.337 95.101, 532.264 96, 532.510 96 C 532.757 96, 533.916 94.125, 535.085 91.834 L 537.210 87.667 534.962 85.971 C 528.818 81.337, 510.989 78.872, 501.500 81.345 M 93.712 81.622 C 93.320 82.013, 93 99.358, 93 120.167 L 93 158 117.500 158 L 142 158 142 153 L 142 148 123.513 148 L 105.027 148 104.763 114.750 L 104.500 81.500 99.462 81.205 C 96.690 81.043, 94.103 81.230, 93.712 81.622 M 153.712 81.622 C 153.320 82.013, 153 99.358, 153 120.167 L 153 158 159.012 158 L 165.024 158 164.762 119.750 L 164.500 81.500 159.462 81.205 C 156.690 81.043, 154.103 81.230, 153.712 81.622 M 184 119.500 L 184 158 189.500 158 L 195 158 195 142 L 195 126 210.393 126 C 227.368 126, 227 126.146, 227 119.418 L 227 116 211 116 L 195 116 195 103.500 L 195 91 213.500 91 L 232 91 232 86 L 232 81 208 81 L 184 81 184 119.500 M 244.684 81.649 C 244.308 82.025, 244 99.358, 244 120.167 L 244 158 268.500 158 L 293 158 293 153 L 293 148 274.500 148 L 256 148 256 136 L 256 124 271.375 124 L 286.750 124 287.375 120.875 C 288.832 113.589, 289.753 114, 272 114 L 256 114 256 102.500 L 256 91 274.555 91 L 293.110 91 292.805 86.250 L 292.500 81.500 268.934 81.232 C 255.973 81.085, 245.061 81.273, 244.684 81.649 M 337 119.500 L 337 158 361.500 158 L 386 158 386 153 L 386 148 367 148 L 348 148 348 114.500 L 348 81 342.500 81 L 337 81 337 119.500 M 583.684 81.649 C 583.308 82.025, 583 99.358, 583 120.167 L 583 158 589 158 L 595 158 595 142 L 595 126 610.375 126 L 625.750 126 626.375 122.875 C 627.832 115.589, 628.753 116, 611 116 L 595 116 595 103.500 L 595 91 613.555 91 L 632.110 91 631.805 86.250 L 631.500 81.500 607.934 81.232 C 594.973 81.085, 584.061 81.273, 583.684 81.649 M 420.885 91.318 C 415.014 93.516, 411.580 96.520, 408.476 102.176 C 405.875 106.913, 405.513 108.658, 405.185 118 C 404.874 126.872, 405.148 129.379, 406.949 134.167 C 409.644 141.329, 412.169 144.535, 417.091 147.047 C 429.743 153.501, 444.514 148.453, 450.018 135.794 C 454.633 125.176, 453.403 107.535, 447.445 98.926 C 446.085 96.961, 443.131 94.318, 440.880 93.053 C 435.832 90.215, 426.089 89.370, 420.885 91.318 M 755 93.882 C 751.523 94.496, 751.498 94.538, 751.200 100.250 L 750.900 106 745.950 106 L 741 106 741 110.500 L 741 115 745.901 115 L 750.802 115 751.151 132.428 C 751.466 148.157, 751.701 150.125, 753.562 152.616 C 758.690 159.482, 765.996 161.445, 775.405 158.486 C 778.482 157.518, 781 156.618, 781 156.485 C 781 156.353, 780.340 154.665, 779.534 152.735 L 778.067 149.225 771.626 149.742 C 765.241 150.255, 765.172 150.232, 763.593 147.179 C 762.350 144.776, 762 140.903, 762 129.550 L 762 115 770.395 115 L 778.790 115 779.176 110.948 C 779.389 108.719, 779.361 106.694, 779.115 106.448 C 778.868 106.202, 774.917 106, 770.333 106 L 762 106 762 99.500 C 762 92.376, 762.275 92.596, 755 93.882 M 651.640 107.033 C 646.829 108.728, 643.476 110.363, 640.141 112.640 C 639.943 112.775, 640.810 114.373, 642.067 116.192 C 643.324 118.012, 644.430 119.619, 644.524 119.764 C 644.618 119.910, 647.126 118.937, 650.098 117.604 C 661.081 112.673, 668.858 113.285, 670.935 119.244 C 672.996 125.154, 672.580 125.737, 665.750 126.519 C 657.112 127.507, 648.611 130.296, 644.363 133.536 C 635.662 140.174, 636.102 152.791, 645.206 157.668 C 650.057 160.267, 660.166 160.037, 666.444 157.186 C 670.771 155.221, 671.494 155.132, 672.243 156.471 C 672.835 157.527, 674.656 158, 678.136 158 L 683.172 158 682.836 136.571 C 682.468 113.075, 682.346 112.587, 675.621 107.566 C 671.555 104.531, 659.499 104.263, 651.640 107.033 M 710.759 106.423 C 702.872 109.238, 697.845 114.543, 695.416 122.614 C 693.783 128.039, 693.556 138.964, 694.973 143.905 C 699.147 158.460, 717.247 163.995, 733.750 155.765 C 736.087 154.599, 737.998 153.388, 737.996 153.073 C 737.991 152.267, 734.117 146, 733.624 146 C 733.401 146, 731.257 146.890, 728.859 147.978 C 723.641 150.346, 716.011 150.574, 711.967 148.483 C 707.403 146.123, 705.543 141.656, 705.520 133 C 705.504 126.879, 705.944 124.726, 707.914 121.286 C 711.999 114.155, 718.028 112.521, 727.800 115.896 L 733.099 117.726 735.050 113.903 C 736.122 111.800, 737 109.869, 737 109.612 C 737 109.354, 734.508 108.211, 731.462 107.072 C 725.103 104.692, 716.374 104.419, 710.759 106.423 M 802.609 106.236 C 796.422 107.873, 789.545 115.233, 787.461 122.448 C 783.353 136.669, 788.449 151.546, 799.376 157.235 C 804.292 159.794, 816.236 160.259, 822.336 158.128 C 831.683 154.863, 837.081 146.699, 837.794 134.746 C 838.614 121.016, 834.229 111.877, 824.690 107.436 C 819.010 104.791, 809.935 104.298, 802.609 106.236 M 852.750 105.716 L 850 106.133 850 132.066 L 850 158 855.500 158 L 861 158 861 140.136 L 861 122.273 863.657 119.616 C 866.910 116.362, 869.642 115.615, 876.037 116.230 C 880.897 116.697, 880.972 116.660, 881.498 113.602 C 882.965 105.073, 883.285 105.500, 875.420 105.500 C 869.206 105.500, 867.892 105.842, 864.670 108.301 L 861 111.102 861 108.051 C 861 104.804, 860.224 104.584, 852.750 105.716 M 885 107.111 C 885 110.139, 904.432 158, 905.662 158 C 907.443 158, 907.389 158.300, 904.608 163.783 C 900.926 171.044, 899.114 172.253, 892.529 171.846 L 886.928 171.500 885.804 175.256 C 885.185 177.322, 884.956 179.289, 885.294 179.627 C 886.620 180.953, 894.728 181.793, 898.858 181.032 C 908.978 179.168, 911.700 174.712, 924.686 138.762 C 930.500 122.668, 935.476 108.713, 935.745 107.750 C 936.167 106.236, 935.490 106, 930.711 106 L 925.189 106 922.224 114.250 C 920.594 118.787, 917.528 127.787, 915.412 134.250 C 913.296 140.713, 911.325 145.993, 911.033 145.985 C 910.740 145.977, 907.290 137.090, 903.367 126.235 L 896.234 106.500 890.617 106.200 C 886.723 105.992, 885 106.271, 885 107.111 M 804.190 115.967 C 799.821 118.708, 797.824 123.790, 797.824 132.167 C 797.824 144.272, 802.838 150.541, 812.447 150.450 C 821.458 150.364, 825.766 145.727, 826.721 135.088 C 827.355 128.028, 825.693 121.807, 822.100 117.785 C 819.672 115.069, 818.508 114.598, 813.399 114.269 C 808.709 113.968, 806.822 114.315, 804.190 115.967 M 664.791 135.081 C 658.329 136.028, 651.553 139.117, 650.623 141.539 C 649.547 144.344, 649.941 147.706, 651.498 148.998 C 653.451 150.619, 663.243 149.870, 668.250 147.715 C 671.992 146.105, 672 146.090, 672 140.051 C 672 136.723, 671.663 134.055, 671.250 134.122 C 670.837 134.189, 667.931 134.621, 664.791 135.081 M 84 164.103 C 84 168.550, 190.174 184.131, 284 193.454 C 472.767 212.211, 627.111 211.099, 709.500 190.388 C 729.870 185.268, 755.257 176.252, 752.187 175.229 C 750.542 174.681, 734.410 177.393, 711.500 182.070 C 678.537 188.799, 671.885 189.526, 619 192.171 C 587.615 193.741, 479.377 193.734, 442 192.160 C 313.293 186.740, 174.680 175.898, 97.250 165.194 C 89.963 164.186, 84 163.696, 84 164.103 M 795.235 165.071 C 780.681 166.478, 752.731 173.064, 754.368 174.701 C 754.640 174.974, 760.632 174.622, 767.682 173.920 C 787.668 171.929, 825.921 172.388, 848.500 174.890 C 858.950 176.048, 868.010 176.996, 868.633 176.998 C 869.257 176.999, 869.985 175.859, 870.252 174.465 C 870.860 171.281, 869.381 170.437, 859.790 168.499 C 839.211 164.341, 815.703 163.093, 795.235 165.071" stroke="none" fill="#fffcfc" fill-rule="evenodd"/><path d="" stroke="none" fill="#fcfcfc" fill-rule="evenodd"/></svg>