<svg width="496" height="112" xmlns="http://www.w3.org/2000/svg" xmlns:xlink="http://www.w3.org/1999/xlink" xml:space="preserve" overflow="hidden"><g transform="translate(104 -268)"><text fill="#00687A" font-family="Dubai,Dubai_MSFontService,sans-serif" font-weight="400" font-size="190" transform="matrix(0.304953 0 0 0.305087 -62.7307 346)">LIFE LOG Factory</text><path d="M428.227 84.7373C425.599 83.4047 420.524 82.7277 415.419 81.9927 410.534 81.2883 404.782 80.6113 393.768 81.3828 381.304 82.255 372.576 85.4174 372.116 85.6522 298.442 123.085 38.1771 84.1701 41.2419 80.7729 41.5438 80.4405 63.9852 84.8532 131.203 89.9215 237.253 97.9143 289.464 96.2066 328.203 93.5809 346.195 92.3611 360.759 85.1154 394.073 84.7373 408.393 84.5757 419.859 86.3871 427.617 87.1769" fill="#00687A" transform="matrix(1 0 0 1.00044 -104 268.02)"/></g></svg>