<svg width="1008" height="228" xmlns="http://www.w3.org/2000/svg" xmlns:xlink="http://www.w3.org/1999/xlink" xml:space="preserve" overflow="hidden"><g transform="translate(-136 -246)"><text fill="#00687A" font-family="Dubai,Dubai_MSFontService,sans-serif" font-weight="400" font-size="190" transform="matrix(0.619743 0 0 0.62107 219.87 405)">LIFE LOG Factory</text><path d="M870.268 172.208C864.926 169.5 854.614 168.124 844.239 166.63 834.311 165.199 822.622 163.823 800.237 165.391 774.908 167.163 757.171 173.59 756.235 174.067 606.512 250.141 77.5857 171.055 83.8141 164.151 84.4276 163.476 130.035 172.444 266.638 182.744 482.16 198.987 588.266 195.517 666.992 190.181 703.557 187.702 733.156 172.977 800.857 172.208 829.96 171.88 853.263 175.561 869.029 177.166" fill="#00687A" transform="matrix(1 0 0 1.00214 136 246.04)"/></g></svg>